<svg xmlns="http://www.w3.org/2000/svg" width="42" height="42" viewBox="0 0 42 42" fill="none">
<path d="M21.001 11.458C19.1141 11.458 17.2696 12.0175 15.7007 13.0658C14.1318 14.1142 12.909 15.6042 12.1869 17.3474C11.4648 19.0907 11.2758 21.0089 11.644 22.8596C12.0121 24.7102 12.9207 26.4102 14.2549 27.7444C15.5892 29.0786 17.2891 29.9873 19.1398 30.3554C20.9904 30.7235 22.9086 30.5346 24.6519 29.8125C26.3952 29.0904 27.8852 27.8676 28.9335 26.2987C29.9818 24.7298 30.5413 22.8853 30.5413 20.9984C30.5413 18.4681 29.5362 16.0415 27.747 14.2523C25.9579 12.4631 23.5313 11.458 21.001 11.458ZM15.5982 16.2183C15.7001 15.6887 15.9568 15.2013 16.3357 14.8177C16.7147 14.4341 17.1989 14.1715 17.7272 14.0631C18.2554 13.9547 18.8039 14.0053 19.3033 14.2087C19.8028 14.412 20.2306 14.7589 20.5329 15.2055C20.8352 15.652 20.9982 16.1782 21.0014 16.7174C21.0046 17.2567 20.8479 17.7847 20.551 18.2349C20.254 18.685 19.8303 19.0369 19.3333 19.2462C18.8363 19.4555 18.2885 19.5127 17.759 19.4106C17.0492 19.2737 16.4228 18.8605 16.0176 18.2618C15.6124 17.6632 15.4615 16.9281 15.5982 16.2183ZM19.563 24.4612C19.4609 24.9904 19.2042 25.4776 18.8253 25.861C18.4464 26.2444 17.9624 26.5068 17.4344 26.6151C16.9063 26.7234 16.358 26.6726 15.8588 26.4693C15.3596 26.266 14.9319 25.9193 14.6298 25.4729C14.3276 25.0265 14.1646 24.5006 14.1614 23.9616C14.1581 23.4226 14.3148 22.8947 14.6115 22.4447C14.9083 21.9947 15.3318 21.6428 15.8285 21.4335C16.3252 21.2242 16.8729 21.1669 17.4021 21.2688C17.7537 21.3365 18.0884 21.4728 18.3873 21.6699C18.6861 21.867 18.9432 22.121 19.1438 22.4174C19.3445 22.7139 19.4848 23.0469 19.5567 23.3976C19.6286 23.7483 19.6308 24.1097 19.563 24.4612ZM20.7206 22.2553C20.4852 22.21 20.2685 22.0959 20.098 21.9274C19.9274 21.759 19.8107 21.5438 19.7625 21.309C19.7143 21.0741 19.7368 20.8303 19.8272 20.6083C19.9176 20.3863 20.0718 20.1961 20.2703 20.0617C20.4688 19.9274 20.7027 19.8549 20.9424 19.8535C21.1821 19.852 21.4168 19.9217 21.6169 20.0537C21.817 20.1857 21.9734 20.3741 22.0664 20.595C22.1595 20.8159 22.1849 21.0595 22.1395 21.2948C22.0786 21.6103 21.895 21.8887 21.6289 22.0688C21.3628 22.2489 21.0361 22.316 20.7206 22.2553ZM26.4038 25.7785C26.3018 26.3077 26.0451 26.7948 25.6663 27.1782C25.2875 27.5616 24.8034 27.8241 24.2754 27.9324C23.7475 28.0408 23.1992 27.9901 22.7 27.7869C22.2008 27.5837 21.773 27.237 21.4708 26.7907C21.1686 26.3444 21.0055 25.8185 21.0022 25.2795C20.9988 24.7405 21.1554 24.2127 21.452 23.7626C21.7486 23.3126 22.172 22.9606 22.6687 22.7512C23.1653 22.5418 23.7129 22.4843 24.2422 22.5861C24.9522 22.7228 25.5788 23.136 25.9841 23.7346C26.3895 24.3333 26.5405 25.0685 26.4038 25.7785ZM24.6006 20.7271C24.0713 20.625 23.5842 20.3683 23.2008 19.9895C22.8174 19.6106 22.555 19.1265 22.4467 18.5985C22.3384 18.0704 22.3891 17.5222 22.5924 17.0229C22.7957 16.5237 23.1425 16.096 23.5889 15.7939C24.0352 15.4917 24.5612 15.3287 25.1002 15.3255C25.6392 15.3222 26.1671 15.4789 26.6171 15.7756C27.067 16.0724 27.4189 16.4959 27.6282 16.9926C27.8375 17.4893 27.8949 18.037 27.7929 18.5663C27.7253 18.9179 27.5889 19.2527 27.3918 19.5517C27.1947 19.8506 26.9406 20.1078 26.6441 20.3085C26.3476 20.5092 26.0144 20.6496 25.6637 20.7215C25.3129 20.7935 24.9514 20.7956 24.5998 20.7279L24.6006 20.7271Z" fill="#AEB1B5"/>
<path d="M22.4577 31.3346L24.5345 31.8863C25.4078 32.1182 26.3375 31.9937 27.119 31.5401C27.9005 31.0866 28.4699 30.3412 28.7018 29.4679L29.2863 27.2666C27.6354 29.4698 25.1812 30.9318 22.4577 31.3346Z" fill="#AEB1B5"/>
<path d="M29.4705 13.2978L27.3005 12.7217C28.3955 13.5643 29.3122 14.6161 29.9976 15.8158C30.6829 17.0156 31.1232 18.3395 31.2928 19.7107L31.8888 17.4659C32.0037 17.0334 32.0324 16.5825 31.973 16.139C31.9137 15.6955 31.7676 15.268 31.543 14.8809C31.3184 14.4938 31.0198 14.1548 30.6642 13.8832C30.3086 13.6116 29.903 13.4126 29.4705 13.2978Z" fill="#AEB1B5"/>
<path d="M19.4962 10.6489L17.4683 10.1141C17.0359 9.99926 16.585 9.97076 16.1415 10.0302C15.698 10.0896 15.2706 10.2358 14.8836 10.4605C14.4966 10.6851 14.1577 10.9838 13.8862 11.3394C13.6146 11.695 13.4158 12.1007 13.301 12.5332L12.7937 14.4434C14.4622 12.3701 16.8599 11.0127 19.4962 10.6489Z" fill="#AEB1B5"/>
<path d="M10.3621 22.5827L9.86624 24.4517C9.75143 24.8841 9.72293 25.335 9.78237 25.7785C9.8418 26.2219 9.98799 26.6494 10.2126 27.0363C10.4373 27.4233 10.7359 27.7623 11.0916 28.0338C11.4472 28.3054 11.8528 28.5042 12.2853 28.619L14.2269 29.1347C12.1603 27.5146 10.7803 25.1751 10.3621 22.5827Z" fill="#AEB1B5"/>
</svg>